<?xml version="1.0" encoding="utf-8"?>
<!-- Generator: Adobe Illustrator 23.0.1, SVG Export Plug-In . SVG Version: 6.00 Build 0)  -->
<svg version="1.2" baseProfile="tiny" id="Layer_1" xmlns="http://www.w3.org/2000/svg" xmlns:xlink="http://www.w3.org/1999/xlink"
	 x="0px" y="0px" viewBox="0 0 1667 501" xml:space="preserve">
<g>
	<g>
		<path fill="#FF0000" d="M185.06,67.39c52.05-1.48,104.15-1.6,156.21-0.25c27.79,0.7,55.59,1.67,83.32,3.63
			c16.27,1.29,32.64,2.43,48.61,5.93c22.82,5.14,42.11,23.28,48.49,45.8c4.29,15.67,6.16,31.88,7.78,48
			c4.64,51.2,4.81,102.78,0.62,154.02c-1.56,17.68-3.43,35.44-7.76,52.7c-4.52,18.1-17.18,33.91-33.77,42.41
			c-13.79,7.23-29.65,8.22-44.83,9.99c-46.6,4.28-93.43,5.16-140.19,5.94c-31.99,0.51-63.99,0.24-95.97-0.41
			c-34.39-0.74-68.79-1.77-103.09-4.41c-14.57-1.29-29.25-2.4-43.52-5.81c-22.53-5.63-41.31-24-47.28-46.47
			c-5-19.25-6.86-39.15-8.5-58.93c-2.03-28.64-3.14-57.37-2.44-86.08c0.75-28.2,2.1-56.45,5.96-84.42
			c1.58-10.36,3.2-20.81,6.66-30.74c6.92-19.15,23.24-34.53,42.73-40.4c10.87-3.16,22.2-4.24,33.42-5.47
			C122.6,69.44,153.84,68.3,185.06,67.39z M201.01,139.33c-29.97,1.86-59.94,6.14-88.74,14.82c-10.34,2.94-17.6,13.76-16.42,24.45
			c0.77,10.41,9.34,19.52,19.68,20.95c6.83,1.29,13.26-1.89,19.77-3.37c34.61-8.84,70.53-11.55,106.16-10.98
			c36.44,0.8,72.92,5.4,108.09,15.11c23.19,6.45,45.85,15.23,66.61,27.5c6.68,3.98,15.37,4.21,22.28,0.64
			c7.43-3.68,12.51-11.6,12.77-19.89c0.38-7.74-3.42-15.54-9.79-19.96c-34.25-20.79-73-33.16-112.12-40.94
			C287.12,139.49,243.89,136.83,201.01,139.33z M199.1,225.37c-24.57,1.8-49,6.03-72.59,13.18c-6.86,1.99-12.29,8.05-13.54,15.08
			c-1.24,6.37,0.99,13.27,5.75,17.69c4.64,4.43,11.55,6.34,17.8,4.8c50.67-15.18,105.03-16.06,156.79-6.1
			c32.83,6.45,65,17.6,93.62,35.11c5.36,3.22,12.31,3.52,17.96,0.86c6.35-2.86,10.88-9.37,11.26-16.35
			c0.57-7.24-3.36-14.53-9.64-18.15c-26.86-16.39-56.48-27.96-86.93-35.65C280.31,226.01,239.47,222.48,199.1,225.37z
			 M197.08,307.32c-19.2,1.69-38.28,4.74-57.11,8.85c-3.99,0.85-8.31,1.52-11.46,4.37c-5.42,4.43-7.09,12.68-3.83,18.88
			c3.09,6.41,10.88,9.94,17.76,8.09c45.91-10.42,93.99-14.46,140.53-5.67c27.61,5.18,54.37,15.15,78.37,29.81
			c5.29,3.33,12.55,3,17.51-0.83c6.08-4.4,8.05-13.42,4.28-19.93c-2.13-4.2-6.44-6.41-10.33-8.66
			c-17.32-10.08-35.82-18.11-54.99-23.91C278.85,306.43,237.52,303.75,197.08,307.32z"/>
	</g>
	<path fill="#FF0000" d="M1421.6,149.69c8.51-3.42,17.8-4.12,26.89-4.11c11.66,0.07,23.49,0.73,34.72,4.15
		c0,13.22-0.01,26.45,0,39.67c-8.23-1.75-16.98-3.37-25.27-1.25c-5.35,1.54-7.32,7.46-7.03,12.51c10.76,0.01,21.53,0,32.3,0.01
		c0,15.72,0,31.44,0,47.16c-10.32,0.01-20.64-0.01-30.96,0.01c0,34.55,0,69.1,0,103.66c-19.36,0-38.72,0-58.08,0
		c-0.01-34.56,0-69.11-0.01-103.66c-5.46-0.01-10.91-0.01-16.36-0.01c-0.02-16.23-0.02-32.46,0-48.69
		c5.44,0.01,10.89,0.01,16.34,0.01c0.23-9.67,1.42-19.54,5.51-28.4C1403.96,161.3,1411.93,153.53,1421.6,149.69z"/>
	<g>
		<path fill="#FF0000" d="M1057.5,147.72c19.36,0.01,38.72,0,58.08,0.01c0.01,23.35,0,46.71,0,70.06
			c6.65-7.9,14.23-15.59,24.1-19.27c15.78-5.9,34.37-3.07,47.87,6.94c14.77,10.73,23.57,27.95,27.27,45.53
			c3.62,17.85,3.15,36.6-1.58,54.21c-4.7,17.13-14.58,33.67-30.15,42.93c-11.73,7.16-26.33,8.72-39.54,5.37
			c-11.33-2.73-20.78-10.31-27.98-19.23c0.02,5.74,0.01,11.48,0.01,17.23c-19.36,0-38.72,0-58.08,0
			C1057.5,283.57,1057.49,215.65,1057.5,147.72z M1132.94,248.25c-8.31,1.79-14.66,8.84-17.09,16.77
			c-3.03,9.78-1.75,21.25,4.73,29.39c4.03,5.15,10.36,8.54,16.96,8.49c7.08,0.12,13.87-3.7,17.91-9.44
			c7.31-10.44,7.36-25.54,0.16-36.05C1150.76,250.19,1141.48,246.18,1132.94,248.25z"/>
	</g>
	<path fill="#FF0000" d="M650.72,157.65c18.12-6.59,37.9-6.35,56.8-4c21.21,2.69,41.81,11.17,57.98,25.3
		c-9.71,14.75-19.45,29.47-29.18,44.2c-14.97-11.8-33.75-18.94-52.87-19.31c-4.02-0.01-8.48,0.27-11.69,2.98
		c-3.41,2.94-2.98,9.09,0.91,11.46c5,3.34,11.04,4.55,16.8,5.98c19.58,4.13,39.77,8.46,56.83,19.44
		c11.16,7.07,19.74,18.44,22.24,31.54c3.3,17.45,0.54,36.65-9.97,51.28c-8.11,11.41-20.44,19.3-33.63,23.59
		c-18.06,5.92-37.49,5.96-56.19,3.64c-25.68-3.33-51.02-13.46-69.91-31.53c10.67-13.89,21.33-27.8,32.01-41.68
		c18.13,15.28,41.92,23.83,65.67,22.86c3.24-0.23,6.64-0.7,9.42-2.53c4-2.55,4.04-9.25,0.05-11.85c-4.73-3.27-10.5-4.5-15.97-5.97
		c-19.22-4.43-39.02-8.63-56.09-18.96c-11.67-6.94-21.06-18.26-23.88-31.73c-3.39-16.35-1.04-34.18,7.67-48.56
		C625.14,171.48,637.27,162.45,650.72,157.65z"/>
	<path fill="#FF0000" d="M788.84,160.9c19.35,0,38.71-0.01,58.08,0c0,12.75-0.01,25.5,0,38.24c10.74,0.01,21.49,0.01,32.24,0
		c0.01,16.31,0,32.62,0,48.92c-10.75,0.01-21.49,0-32.24,0c0.03,13.43-0.09,26.86,0.06,40.29c0.09,4.92,1.97,10.62,6.97,12.53
		c8.24,2.88,17.13,0.03,24.7-3.51c-0.01,16.29-0.01,32.58,0,48.87c-15.59,8.25-34.06,10.12-51.32,7.44
		c-12.51-1.93-24.71-8.71-31.02-19.98c-5.62-9.67-7.33-21.07-7.46-32.1c-0.04-17.85,0-35.69-0.02-53.53
		c-5.46-0.01-10.91,0-16.36-0.01c-0.03-16.3-0.01-32.61-0.01-48.91c5.46-0.01,10.91,0,16.37-0.01
		C788.83,186.39,788.83,173.64,788.84,160.9z"/>
	<g>
		<path fill="#FF0000" d="M1249.84,214.86c11.32-11.18,26.71-18.04,42.57-19.14c16.16-1.1,33.1,2.04,46.65,11.27
			c12.09,8.11,20.7,20.65,25.57,34.24c5.67,15.58,6.84,32.41,5.96,48.85c-29.98,0.02-59.97-0.02-89.95,0.02
			c1.91,5.84,5.07,11.49,10.09,15.21c7.71,5.83,18.57,6.62,27.41,2.99c6.89-2.83,12.42-8.04,17.38-13.47
			c10.41,9.03,20.82,18.07,31.24,27.11c-9.17,13.14-22.03,24.07-37.39,29.12c-16.45,5.41-34.56,5.37-51.17,0.69
			c-15.72-4.5-29.87-14.53-38.85-28.25c-11.09-16.64-14.5-37.38-12.77-57.04C1228.24,247.33,1235.97,228.37,1249.84,214.86z
			 M1289.38,242.38c-6.05,4.7-8.41,12.5-9.51,19.77c12.67,0.03,25.35,0.03,38.03,0c-0.76-6.87-2.95-14.11-8.39-18.73
			C1304.06,238.64,1295.19,237.79,1289.38,242.38z"/>
	</g>
	<path fill="#FF0000" d="M891.5,199.17c19.36,0,38.72-0.01,58.08,0c0.02,26.79-0.03,53.59,0.02,80.39
		c0.02,6.22,1.87,12.93,6.83,17.04c4.89,4.18,12.54,4.22,17.68,0.46c5.55-3.91,7.96-10.93,7.96-17.5c0.04-26.8,0-53.59,0.02-80.39
		c19.35-0.01,38.71,0,58.07,0c0.02,50.77,0,101.55,0.01,152.32c-19.36,0.02-38.72,0.01-58.09,0.01c0.01-6.76-0.01-13.51,0.02-20.26
		c-7.84,10.93-19.07,20.02-32.46,22.84c-13.94,2.87-29.56,0.2-40.59-9.18c-12.51-10.56-17.3-27.53-17.52-43.37
		C891.47,267.41,891.51,233.29,891.5,199.17z"/>
	<path fill="#FF0000" d="M1539.28,345.86c-18.25-48.9-36.53-97.79-54.78-146.69c20.05,0,40.1,0,60.15,0
		c8.11,26.78,16.19,53.58,24.3,80.37c7.43-26.79,14.83-53.59,22.26-80.37c19.7,0,39.41-0.01,59.12,0
		c-14.47,42.5-28.97,84.99-43.45,127.48c-5.29,15.25-9.89,30.96-18.34,44.85c-4.93,8.16-11.56,15.58-20.14,19.98
		c-9.78,5.1-21.11,6.08-31.95,5.57c-17.42-0.82-34.32-6.77-49.14-15.79c5.63-14.44,11.26-28.87,16.89-43.3
		c6.72,3.97,13.76,7.68,21.41,9.5C1530.18,348.59,1535.05,347.88,1539.28,345.86z"/>
</g>
</svg>
